<mxfile host="app.diagrams.net" modified="2024-05-26T17:49:59.174Z" agent="Mozilla/5.0 (Windows NT 10.0; Win64; x64) AppleWebKit/537.36 (KHTML, like Gecko) Chrome/125.0.0.0 Safari/537.36" version="24.4.7" etag="xiuqbgA1XXHsEWxMZNd-" type="github">
  <diagram name="Page-1" id="F4ahQokId3js0PcJ-TMs">
    <mxGraphModel>
      <root>
        <mxCell id="0" />
        <mxCell id="1" parent="0" />
      </root>
    </mxGraphModel>
  </diagram>
</mxfile>
